<svg version="1.1" id="Layer_1" xmlns="http://www.w3.org/2000/svg" xmlns:xlink="http://www.w3.org/1999/xlink" x="0px" y="0px"
	 width="100%" viewBox="0 0 87 113" enable-background="new 0 0 87 113" xml:space="preserve">
<path fill="#265993" opacity="1.000000" stroke="none" 
	d="
M28.000000,1.000000 
	C48.000050,1.000000 68.000099,1.000000 88.000000,1.000000 
	C88.000000,4.411485 88.000000,7.722786 87.574829,11.517006 
	C83.740494,12.122505 80.737099,12.059670 78.964607,8.040149 
	C78.183327,6.268437 75.260941,4.224684 73.556908,4.422792 
	C71.897919,4.615664 70.581642,7.540375 69.061974,9.217674 
	C67.894714,10.506018 66.584236,12.827803 65.443489,12.764965 
	C61.590141,12.552708 59.255756,14.561565 56.529316,17.100338 
	C55.815742,17.258406 55.532654,17.332737 54.959587,17.261650 
	C53.201683,15.018119 51.733749,12.920010 50.101189,10.616723 
	C49.628971,10.241917 49.321384,10.072288 48.696667,9.648092 
	C45.262318,9.298595 42.145103,9.203667 38.731789,9.107611 
	C37.938812,9.382093 37.441936,9.657703 36.720871,10.139540 
	C35.974514,11.169798 35.452347,11.993827 34.659824,12.604750 
	C32.595768,11.924974 30.802067,11.458305 29.003765,10.571467 
	C28.666111,7.100866 28.333055,4.050433 28.000000,1.000000 
z"/>
<path fill="#2B67A5" opacity="1.000000" stroke="none" 
	d="
M88.000000,41.000000 
	C88.000000,52.020893 88.000000,63.041790 87.600937,74.617599 
	C86.406075,75.370270 85.620247,75.634888 84.812912,75.755447 
	C76.888931,76.938766 75.048470,75.378296 74.999352,67.474716 
	C74.996292,66.982674 74.997849,66.490593 74.997772,65.623703 
	C74.998451,64.499130 74.998619,63.749382 75.166199,62.774284 
	C75.222504,61.699402 75.111404,60.849876 75.000290,59.625397 
	C75.001167,58.500553 75.002060,57.750652 75.318214,56.838936 
	C76.560387,54.492455 77.223244,52.141087 78.473534,50.160568 
	C80.565269,46.847160 79.633507,45.373627 75.613586,45.000809 
	C73.955681,44.993916 72.682358,44.987530 71.337311,44.590096 
	C71.259598,43.142101 71.253609,42.085152 71.401512,40.754395 
	C71.711266,39.653973 71.867126,38.827351 72.218460,37.676353 
	C72.608147,35.571915 72.802353,33.791859 73.279144,31.862137 
	C77.031555,32.468067 82.338020,31.450027 82.515770,36.342617 
	C82.686157,41.032269 84.816643,41.059235 88.000000,41.000000 
z"/>
<path fill="#2A6AA6" opacity="1.000000" stroke="none" 
	d="
M1.000000,107.000000 
	C1.000000,83.979103 1.000000,60.958210 1.329700,37.372871 
	C3.107078,35.206097 4.554755,33.603767 6.010699,32.439850 
	C6.061467,34.929028 6.103967,36.979805 6.129256,39.482338 
	C6.068195,42.954967 6.024346,45.975842 5.650137,49.183258 
	C3.496654,53.366756 2.588477,57.310036 6.007068,61.436974 
	C6.338444,67.582855 6.664800,73.291534 6.982208,79.466721 
	C6.660171,87.289452 6.347081,94.645676 5.831800,102.264648 
	C4.756627,104.052101 3.883647,105.576813 2.675037,107.096146 
	C1.892938,107.060501 1.446469,107.030251 1.000000,107.000000 
z"/>
<path fill="#2C68A7" opacity="1.000000" stroke="none" 
	d="
M74.997253,65.998535 
	C74.997849,66.490593 74.996292,66.982674 74.999352,67.474716 
	C75.048470,75.378296 76.888931,76.938766 84.812912,75.755447 
	C85.620247,75.634888 86.406075,75.370270 87.600937,75.086258 
	C88.000000,79.356903 88.000000,83.713799 87.605484,88.545654 
	C80.155106,90.123009 79.918404,90.448112 79.524239,97.767212 
	C79.482796,98.536720 78.531540,99.257225 77.815956,99.717407 
	C76.086143,98.621674 74.542763,97.808983 73.028503,96.642685 
	C76.613792,91.355553 70.557892,87.256142 71.862602,82.517998 
	C71.069542,82.344193 70.276482,82.170387 69.376656,81.549484 
	C69.591820,76.678741 69.913750,72.255089 70.384995,67.699860 
	C70.534302,67.568275 70.532684,67.169983 70.726028,67.010849 
	C71.104378,66.573021 71.289375,66.294327 71.826027,66.012604 
	C73.117538,66.005898 74.057396,66.002213 74.997253,65.998535 
z"/>
<path fill="#4088BD" opacity="1.000000" stroke="none" 
	d="
M60.000000,114.000000 
	C48.645771,114.000000 37.291542,114.000000 25.537212,113.659561 
	C27.118660,109.714546 23.105375,109.199745 22.315948,107.148170 
	C23.100052,107.067482 23.549374,107.034523 24.373951,107.014122 
	C25.500145,107.022957 26.251083,107.019226 27.334358,107.021721 
	C28.109755,107.018921 28.552818,107.009911 29.456818,107.013618 
	C33.611973,107.014549 37.306190,107.002754 41.417477,107.003166 
	C43.225914,107.000847 44.617279,106.986320 46.436356,106.983536 
	C48.576050,106.995644 50.288029,106.996002 52.374840,107.008423 
	C53.499504,107.011604 54.249344,107.002716 55.443249,107.002754 
	C58.256416,107.063385 60.625511,107.115074 62.984695,107.527176 
	C61.983189,109.925049 60.991596,111.962524 60.000000,114.000000 
z"/>
<path fill="#255D9A" opacity="1.000000" stroke="none" 
	d="
M56.959797,17.016602 
	C59.255756,14.561565 61.590141,12.552708 65.443489,12.764965 
	C66.584236,12.827803 67.894714,10.506018 69.061974,9.217674 
	C70.581642,7.540375 71.897919,4.615664 73.556908,4.422792 
	C75.260941,4.224684 78.183327,6.268437 78.964607,8.040149 
	C80.737099,12.059670 83.740494,12.122505 87.574829,11.999962 
	C88.000000,14.041667 88.000000,16.083334 87.581818,18.559303 
	C83.641861,18.299417 80.104988,16.975163 76.601891,17.059196 
	C71.388840,17.184252 66.199661,18.304249 60.627419,19.000086 
	C59.508762,18.998007 58.763008,18.996693 57.873894,18.819736 
	C57.530113,18.417868 57.311619,18.210693 57.047249,17.770966 
	C56.999561,17.351774 56.979679,17.184189 56.959797,17.016602 
z"/>
<path fill="#2965A1" opacity="1.000000" stroke="none" 
	d="
M88.000000,40.532394 
	C84.816643,41.059235 82.686157,41.032269 82.515770,36.342617 
	C82.338020,31.450027 77.031555,32.468067 72.955673,31.858604 
	C71.918228,32.002544 71.486824,32.000351 71.039948,31.561127 
	C71.016922,29.082993 71.009377,27.041889 71.280930,24.786991 
	C73.851128,20.698051 76.877678,20.230606 80.851570,22.110331 
	C83.042183,23.146536 85.604988,23.395905 88.000000,24.000000 
	C88.000000,29.354929 88.000000,34.709858 88.000000,40.532394 
z"/>
<path fill="#245A98" opacity="1.000000" stroke="none" 
	d="
M27.533138,1.000000 
	C28.333055,4.050433 28.666111,7.100866 28.998030,10.577219 
	C28.996893,11.003139 28.987009,11.013131 28.612690,11.026762 
	C27.154673,12.362267 26.070974,13.684144 24.609741,14.995649 
	C22.154642,13.622065 19.859293,12.495613 18.054674,10.835664 
	C15.802569,8.764105 13.954649,6.253136 11.936008,3.565307 
	C11.959865,2.465819 11.979932,1.732909 12.000000,1.000000 
	C17.022093,1.000000 22.044184,1.000000 27.533138,1.000000 
z"/>
<path fill="#2A67A5" opacity="1.000000" stroke="none" 
	d="
M78.002388,100.000465 
	C78.531540,99.257225 79.482796,98.536720 79.524239,97.767212 
	C79.918404,90.448112 80.155106,90.123009 87.605484,89.010300 
	C88.000000,94.688042 88.000000,100.376083 87.542046,106.543869 
	C83.722710,107.016632 80.361336,107.009651 77.000359,106.668694 
	C77.000244,105.889580 76.999718,105.444443 77.073753,104.642349 
	C77.432999,102.857086 77.717690,101.428772 78.002388,100.000465 
z"/>
<path fill="#2A609F" opacity="1.000000" stroke="none" 
	d="
M88.000000,23.583334 
	C85.604988,23.395905 83.042183,23.146536 80.851570,22.110331 
	C76.877678,20.230606 73.851128,20.698051 71.089241,24.923996 
	C70.370049,25.469833 70.148750,25.691885 69.690506,25.942688 
	C69.252792,25.975088 69.079132,26.005747 68.694199,25.857565 
	C67.993599,25.437593 67.504272,25.196466 66.928696,24.678787 
	C66.223526,23.952232 65.604614,23.502226 64.842262,22.740044 
	C63.471462,21.932941 62.244102,21.438017 61.012619,20.619387 
	C61.005768,19.864071 61.003044,19.432459 61.000320,19.000851 
	C66.199661,18.304249 71.388840,17.184252 76.601891,17.059196 
	C80.104988,16.975163 83.641861,18.299417 87.581818,18.996803 
	C88.000000,20.388889 88.000000,21.777779 88.000000,23.583334 
z"/>
<path fill="#4189BC" opacity="1.000000" stroke="none" 
	d="
M1.000000,107.497902 
	C1.446469,107.030251 1.892938,107.060501 2.935322,107.251053 
	C4.699899,106.609138 5.868560,105.806915 7.397571,105.031006 
	C9.164823,105.372490 10.571726,105.687660 12.112360,106.300690 
	C13.169546,107.086296 14.093000,107.574020 15.022646,108.441330 
	C15.352558,110.547272 15.676279,112.273636 16.000000,114.000000 
	C11.115303,114.000000 6.230606,114.000000 1.000000,114.000000 
	C1.000000,112.011856 1.000000,110.003830 1.000000,107.497902 
z"/>
<path fill="#4287BB" opacity="1.000000" stroke="none" 
	d="
M76.999954,107.002670 
	C80.361336,107.009651 83.722710,107.016632 87.542046,107.011810 
	C88.000000,109.282310 88.000000,111.564629 88.000000,114.000000 
	C83.650154,114.000000 79.299202,114.000000 74.451843,113.657425 
	C74.305290,111.233734 74.655159,109.152618 75.337105,107.051117 
	C76.112770,107.021385 76.556366,107.012024 76.999954,107.002670 
z"/>
<path fill="#4188B6" opacity="1.000000" stroke="none" 
	d="
M75.005028,107.071495 
	C74.655159,109.152618 74.305290,111.233734 73.977707,113.657425 
	C69.643097,114.000000 65.286201,114.000000 60.464649,114.000000 
	C60.991596,111.962524 61.983189,109.925049 63.421631,107.487366 
	C65.912209,107.057884 67.955933,107.028603 70.416534,107.005371 
	C72.223946,107.031448 73.614487,107.051468 75.005028,107.071495 
z"/>
<path fill="#2867A1" opacity="1.000000" stroke="none" 
	d="
M6.002431,32.001442 
	C4.554755,33.603767 3.107078,35.206097 1.329700,36.904213 
	C1.000000,31.977907 1.000000,26.955816 1.355269,21.456522 
	C2.808562,20.317905 3.906587,19.656488 5.332026,19.000462 
	C6.095634,19.014715 6.531828,19.023579 6.887447,19.411953 
	C6.563006,21.867977 6.319141,23.944489 6.064549,26.447876 
	C6.036693,28.583649 6.019562,30.292545 6.002431,32.001442 
z"/>
<path fill="#428AC2" opacity="1.000000" stroke="none" 
	d="
M16.449980,114.000000 
	C15.676279,112.273636 15.352558,110.547272 15.019156,108.408691 
	C15.009475,107.996483 14.996140,107.933807 15.272244,107.879341 
	C16.033045,107.551483 16.517742,107.278091 17.417778,107.017265 
	C19.215799,107.085182 20.598482,107.140541 21.981167,107.195892 
	C23.105375,109.199745 27.118660,109.714546 25.068554,113.659561 
	C22.299986,114.000000 19.599974,114.000000 16.449980,114.000000 
z"/>
<path fill="#2A5B93" opacity="1.000000" stroke="none" 
	d="
M1.000000,11.000000 
	C1.000000,7.781591 1.000000,4.563183 1.000000,1.000000 
	C2.319885,1.000000 3.659980,1.000000 5.613660,1.212718 
	C6.403615,1.697577 6.616433,1.937370 6.987748,2.416170 
	C7.735906,3.130969 8.362016,3.574414 9.044240,4.220046 
	C9.100354,4.422232 9.192455,4.831659 8.986895,5.132644 
	C7.840569,7.287519 6.899804,9.141410 5.545808,10.996058 
	C3.755051,10.997876 2.377526,10.998939 1.000000,11.000000 
z"/>
<path fill="#236298" opacity="1.000000" stroke="none" 
	d="
M1.000000,11.454110 
	C2.377526,10.998939 3.755051,10.997876 5.559594,11.372660 
	C6.005188,12.502004 6.023763,13.255505 5.835182,14.312387 
	C5.420221,16.075537 5.212416,17.535305 5.004611,18.995073 
	C3.906587,19.656488 2.808562,20.317905 1.355269,20.989660 
	C1.000000,17.969406 1.000000,14.938813 1.000000,11.454110 
z"/>
<path fill="#5A88B4" opacity="1.000000" stroke="none" 
	d="
M6.865700,2.144815 
	C6.616433,1.937370 6.403615,1.697577 6.113622,1.212718 
	C7.714186,1.000000 9.428372,1.000000 11.571280,1.000000 
	C11.979932,1.732909 11.959865,2.465819 11.688847,3.565687 
	C11.437897,3.932647 10.943938,3.975132 10.721300,4.077095 
	C10.063261,4.396592 9.627858,4.614126 9.192455,4.831659 
	C9.192455,4.831659 9.100354,4.422232 8.933363,3.940443 
	C8.132813,3.020708 7.499257,2.582761 6.865700,2.144815 
z"/>
<path fill="#F1FCFD" opacity="1.000000" stroke="none" 
	d="
M50.265820,10.821899 
	C51.733749,12.920010 53.201683,15.018119 54.964466,17.626469 
	C55.552723,19.317192 55.846130,20.497677 56.111530,22.091976 
	C56.055984,23.335424 56.028450,24.165056 56.103405,25.292236 
	C57.137314,26.725399 58.068733,27.861013 58.998333,29.301342 
	C58.994705,30.012257 58.992901,30.418455 58.595139,30.892632 
	C57.415077,31.118399 56.630970,31.276190 55.622948,31.367239 
	C55.399029,31.300497 55.006660,31.046690 54.961620,30.669861 
	C54.188068,27.938862 53.734772,25.445675 52.639263,23.276884 
	C51.840351,21.695263 50.194878,20.541258 48.623611,19.153717 
	C47.917694,19.046370 47.514957,18.981930 46.829765,18.610214 
	C44.311893,18.366615 42.076485,18.430292 39.700012,18.567635 
	C39.558952,18.641298 39.435051,18.935163 39.435051,18.935163 
	C39.435051,18.935163 39.642490,19.177563 39.405975,19.356506 
	C39.097237,20.305292 39.025013,21.075134 38.787193,22.205227 
	C37.747421,24.712521 36.873241,26.859560 35.581619,28.987263 
	C33.773018,29.025023 32.381866,29.082119 30.665649,29.100891 
	C29.539608,29.320538 28.738632,29.578508 27.691240,30.040421 
	C27.397760,30.849310 27.350693,31.454258 27.279446,32.381714 
	C27.611349,33.623753 27.967436,34.543289 28.348461,35.880325 
	C28.464348,37.679562 28.555292,39.061298 28.512703,40.662106 
	C28.421814,41.213673 28.464460,41.546165 28.520245,42.291439 
	C28.518232,43.804985 28.503080,44.905754 28.165619,45.966927 
	C25.709190,44.953152 23.575069,43.978973 21.357105,42.671219 
	C21.203526,41.884418 21.133791,41.431194 21.245087,40.724686 
	C21.304432,39.318817 21.182747,38.166237 21.115093,36.741730 
	C21.210711,36.289726 21.252295,36.109642 21.477516,35.618446 
	C21.558220,32.812687 21.455284,30.318039 21.359879,27.324554 
	C21.486019,26.514992 21.604633,26.204266 21.830719,25.809458 
	C22.054506,25.570036 22.096121,25.396749 22.224110,24.855629 
	C22.978289,24.023218 23.571396,23.540697 24.328377,23.140682 
	C24.492250,23.223186 24.765718,22.978519 25.015675,23.031620 
	C25.764868,22.986595 26.264107,22.888474 27.104439,22.853872 
	C28.359381,22.407984 29.273233,21.898575 30.217422,21.336540 
	C30.247759,21.283915 30.342096,21.207367 30.620449,21.141207 
	C31.126966,20.594238 31.355131,20.113430 31.731808,19.343239 
	C32.194511,18.245705 32.508701,17.437553 33.085220,16.518494 
	C33.522339,15.874599 33.697132,15.341612 34.048634,14.584183 
	C34.460285,13.845779 34.695229,13.331817 34.930176,12.817855 
	C35.452347,11.993827 35.974514,11.169798 37.056297,10.244474 
	C38.077541,10.090775 38.539169,10.038369 39.361053,10.073531 
	C40.460697,10.214450 41.200085,10.267800 42.308834,10.483629 
	C45.207405,10.704704 47.736610,10.763302 50.265820,10.821899 
z"/>
<path fill="#245A98" opacity="1.000000" stroke="none" 
	d="
M34.659821,12.604750 
	C34.695229,13.331817 34.460285,13.845779 34.054520,14.620450 
	C33.883698,14.881159 33.958454,14.881186 33.878323,14.694693 
	C33.482239,14.727206 33.166290,14.946215 32.765907,15.404119 
	C32.728619,15.971813 32.775757,16.300608 32.822895,16.629404 
	C32.508701,17.437553 32.194511,18.245705 31.457376,19.329540 
	C30.685045,19.713564 30.335653,19.821899 29.904251,19.540646 
	C29.543829,16.438416 29.265419,13.725773 28.987009,11.013131 
	C28.987009,11.013131 28.996893,11.003139 29.002628,10.997387 
	C30.802067,11.458305 32.595768,11.924974 34.659821,12.604750 
z"/>
<path fill="#7991A4" opacity="1.000000" stroke="none" 
	d="
M41.939472,10.321151 
	C41.200085,10.267800 40.460697,10.214450 39.364464,9.854123 
	C39.007614,9.547147 39.027885,9.108738 39.027885,9.108738 
	C42.145103,9.203667 45.262318,9.298595 48.256020,9.676998 
	C46.068161,10.080697 44.003819,10.200924 41.939472,10.321151 
z"/>
<path fill="#BFD8EA" opacity="1.000000" stroke="none" 
	d="
M42.308834,10.483629 
	C44.003819,10.200924 46.068161,10.080697 48.573151,9.931564 
	C49.321384,10.072288 49.628971,10.241917 50.101189,10.616722 
	C47.736610,10.763302 45.207405,10.704704 42.308834,10.483629 
z"/>
<path fill="#506784" opacity="1.000000" stroke="none" 
	d="
M56.139542,21.678160 
	C55.846130,20.497677 55.552723,19.317192 55.254440,17.771889 
	C55.532654,17.332737 55.815742,17.258406 56.529316,17.100338 
	C56.979679,17.184189 56.999561,17.351774 57.036331,18.086468 
	C57.073776,19.073666 57.094330,19.493757 57.189011,20.239635 
	C57.330322,20.777794 57.397507,20.990166 57.374165,21.325687 
	C57.283642,21.448837 57.073093,21.670448 56.839859,21.696175 
	C56.606625,21.721899 56.139542,21.678160 56.139542,21.678160 
z"/>
<path fill="#6B889A" opacity="1.000000" stroke="none" 
	d="
M38.731789,9.107611 
	C39.027885,9.108738 39.007614,9.547147 39.004204,9.766555 
	C38.539169,10.038369 38.077541,10.090775 37.280487,10.038246 
	C37.441936,9.657703 37.938812,9.382093 38.731789,9.107611 
z"/>
<path fill="#2F6AAB" opacity="1.000000" stroke="none" 
	d="
M74.997772,65.623703 
	C74.057396,66.002213 73.117538,66.005898 71.728653,65.550613 
	C71.322762,58.388142 71.365898,51.684643 71.409042,44.981148 
	C72.682358,44.987530 73.955681,44.993916 75.613029,45.432816 
	C75.665688,49.577137 75.334320,53.288948 75.002953,57.000755 
	C75.002060,57.750652 75.001167,58.500553 74.833107,59.850822 
	C74.776894,61.300674 74.887840,62.150158 74.998787,62.999638 
	C74.998619,63.749382 74.998451,64.499130 74.997772,65.623703 
z"/>
<path fill="#2C68A7" opacity="1.000000" stroke="none" 
	d="
M75.318214,56.838936 
	C75.334320,53.288948 75.665688,49.577137 75.997620,45.433319 
	C79.633507,45.373627 80.565269,46.847160 78.473534,50.160568 
	C77.223244,52.141087 76.560387,54.492455 75.318214,56.838936 
z"/>
<path fill="#6E96B8" opacity="1.000000" stroke="none" 
	d="
M71.337311,44.590099 
	C71.365898,51.684643 71.322762,58.388142 71.376999,65.553635 
	C71.289375,66.294327 71.104378,66.573021 70.597839,66.546005 
	C70.226326,56.797298 70.176353,47.354305 70.327805,37.945992 
	C70.529236,37.980667 70.932091,38.050049 70.964622,38.422867 
	C71.080643,39.539860 71.164131,40.284031 71.247620,41.028202 
	C71.253609,42.085152 71.259598,43.142101 71.337311,44.590099 
z"/>
<path fill="#3668A7" opacity="1.000000" stroke="none" 
	d="
M70.932091,38.050049 
	C70.932091,38.050049 70.529236,37.980667 70.288040,37.637939 
	C70.051361,37.088257 70.055878,36.881302 70.206932,36.367699 
	C70.587448,34.706760 70.821442,33.352459 71.055428,31.998159 
	C71.486824,32.000351 71.918228,32.002544 72.673096,32.008270 
	C72.802353,33.791859 72.608147,35.571915 71.945419,37.684319 
	C71.295303,38.027798 71.113701,38.038921 70.932091,38.050049 
z"/>
<path fill="#2C68A7" opacity="1.000000" stroke="none" 
	d="
M75.166199,62.774284 
	C74.887840,62.150158 74.776894,61.300674 74.833130,60.225769 
	C75.111404,60.849876 75.222504,61.699402 75.166199,62.774284 
z"/>
<path fill="#467AB7" opacity="1.000000" stroke="none" 
	d="
M70.964622,38.422867 
	C71.113701,38.038921 71.295303,38.027798 71.749939,38.008701 
	C71.867126,38.827351 71.711266,39.653973 71.401505,40.754395 
	C71.164131,40.284031 71.080643,39.539860 70.964622,38.422867 
z"/>
<path fill="#3E86BA" opacity="1.000000" stroke="none" 
	d="
M6.991155,79.000221 
	C6.664800,73.291534 6.338444,67.582855 6.014831,60.976364 
	C6.005215,56.384609 5.992856,52.690662 5.980497,48.996716 
	C6.024346,45.975842 6.068195,42.954967 6.540142,39.475861 
	C8.641830,39.013596 10.315421,39.009567 11.992109,39.473564 
	C11.986982,54.295574 11.978758,68.649559 11.669397,82.859711 
	C9.909225,81.477318 8.450190,80.238770 6.991155,79.000221 
z"/>
<path fill="#4085BC" opacity="1.000000" stroke="none" 
	d="
M6.982207,79.466721 
	C8.450190,80.238770 9.909225,81.477318 11.676099,83.322472 
	C11.993535,87.953148 12.003131,91.977211 12.009729,96.455338 
	C11.997363,99.940529 11.987996,102.971680 11.978628,106.002823 
	C10.571726,105.687660 9.164823,105.372490 7.365889,104.708267 
	C6.660569,103.573448 6.347281,102.787674 6.033993,102.001907 
	C6.347081,94.645676 6.660171,87.289452 6.982207,79.466721 
z"/>
<path fill="#3A81B6" opacity="1.000000" stroke="none" 
	d="
M11.989014,39.005539 
	C10.315421,39.009567 8.641830,39.013596 6.557353,39.024101 
	C6.103967,36.979805 6.061467,34.929028 6.010698,32.439850 
	C6.019562,30.292545 6.036693,28.583649 6.419391,26.456219 
	C8.521122,26.693026 10.257285,27.348366 11.994906,28.440498 
	C11.998331,30.918034 12.000299,32.958778 12.001139,35.400024 
	C11.996346,36.868866 11.992680,37.937202 11.989014,39.005539 
z"/>
<path fill="#2E71AB" opacity="1.000000" stroke="none" 
	d="
M5.650137,49.183258 
	C5.992856,52.690662 6.005215,56.384609 6.009811,60.539169 
	C2.588477,57.310036 3.496654,53.366756 5.650137,49.183258 
z"/>
<path fill="#357AB1" opacity="1.000000" stroke="none" 
	d="
M5.831800,102.264648 
	C6.347281,102.787674 6.660569,103.573448 7.005539,104.681953 
	C5.868560,105.806915 4.699899,106.609138 3.270953,107.256447 
	C3.883647,105.576813 4.756627,104.052101 5.831800,102.264648 
z"/>
<path fill="#F5FDFD" opacity="1.000000" stroke="none" 
	d="
M59.000153,28.996628 
	C58.068733,27.861013 57.137314,26.725399 56.382912,25.218605 
	C57.045246,24.544935 57.530560,24.242449 58.235252,23.916576 
	C58.779476,23.854898 59.004478,23.684637 59.549767,23.364773 
	C61.641834,23.248833 63.313766,23.150528 64.985703,23.052219 
	C65.604614,23.502226 66.223526,23.952232 66.920731,25.134163 
	C67.642616,29.251928 68.286209,32.637772 69.035660,36.179825 
	C69.141510,36.336037 69.205330,36.708004 69.067078,37.111008 
	C68.787346,38.353645 68.645851,39.193279 68.263123,40.202209 
	C68.170166,41.904526 68.318443,43.437546 68.545105,45.434288 
	C68.684158,50.711277 68.599190,55.532608 68.865021,60.334518 
	C69.004341,62.851070 69.758942,65.333565 70.235680,67.831436 
	C69.913750,72.255089 69.591820,76.678741 69.189407,81.876129 
	C67.792511,83.664383 66.476105,84.678894 64.827530,85.568916 
	C63.383511,85.994949 62.271645,86.545479 60.847801,87.258179 
	C58.688065,90.616203 56.840309,93.812073 54.539471,96.989075 
	C51.058434,96.966431 48.030483,96.962654 44.869434,96.671921 
	C43.678242,95.490868 42.620148,94.596779 41.644577,93.772423 
	C42.183403,92.269463 42.619450,91.053192 43.453285,89.889099 
	C46.247650,89.603241 48.644218,89.265213 51.118042,88.687431 
	C51.133625,88.291481 51.071953,88.135292 51.120892,87.697128 
	C51.323414,87.022064 51.415325,86.628967 51.734749,86.049805 
	C52.038227,85.683197 52.114193,85.502663 52.207611,85.235535 
	C52.225063,85.148933 52.094696,84.958542 52.094696,84.958542 
	C52.094696,84.958542 51.975063,85.113098 52.143661,84.802475 
	C52.745144,83.410294 53.178024,82.328743 53.811264,81.156929 
	C54.098473,80.669083 54.185329,80.271507 54.471390,79.741753 
	C55.427483,79.335060 56.184372,79.060532 57.326565,78.864670 
	C59.138153,78.643341 60.564442,78.343353 62.150631,77.934036 
	C62.559441,77.675819 62.671707,77.456886 62.780563,76.774261 
	C62.903553,75.276756 62.893311,74.172905 62.938210,72.629623 
	C62.928139,69.866440 62.862926,67.542679 62.842224,64.764793 
	C62.907784,61.890415 62.928833,59.470169 62.894135,56.777107 
	C62.352699,55.995483 61.867016,55.486679 61.252827,54.571857 
	C61.021347,52.468513 60.918377,50.771187 60.972500,48.633392 
	C61.093639,44.795807 61.057690,41.398693 61.051613,37.579948 
	C60.965130,35.752087 60.848770,34.345860 60.781963,32.768410 
	C60.831512,32.597187 60.897148,32.246788 60.886833,31.900959 
	C60.251064,30.702295 59.625610,29.849463 59.000153,28.996628 
M62.489006,50.475979 
	C62.489006,50.475979 62.505634,50.518482 62.489006,50.475979 
z"/>
<path fill="#2A67A5" opacity="1.000000" stroke="none" 
	d="
M65.159691,85.693413 
	C66.476105,84.678894 67.792511,83.664383 69.296173,82.323227 
	C70.276482,82.170387 71.069542,82.344193 71.862602,82.517998 
	C70.557892,87.256142 76.613792,91.355553 72.739120,96.735817 
	C71.613335,97.788193 70.806053,98.393829 69.629211,99.083458 
	C65.318611,100.303276 61.395378,101.506538 57.430771,102.553085 
	C54.390068,103.355743 53.139175,101.768005 53.248940,98.760849 
	C53.436615,98.622215 53.861294,98.427887 54.070190,98.489090 
	C54.626759,98.493454 54.795128,98.289001 54.893341,97.717484 
	C55.002480,97.498032 54.992554,97.007942 54.992554,97.007942 
	C56.840309,93.812073 58.688065,90.616203 61.175171,87.285576 
	C62.929581,86.665016 64.044632,86.179214 65.159691,85.693413 
z"/>
<path fill="#2967AD" opacity="1.000000" stroke="none" 
	d="
M69.998779,98.999466 
	C70.806053,98.393829 71.613335,97.788193 72.710007,97.089424 
	C74.542763,97.808983 76.086143,98.621674 77.815956,99.717407 
	C77.717690,101.428772 77.432999,102.857086 76.636887,104.642693 
	C74.084068,104.999878 72.042664,104.999771 69.937431,104.665779 
	C69.915329,102.554420 69.957054,100.776947 69.998779,98.999466 
z"/>
<path fill="#97BFE0" opacity="1.000000" stroke="none" 
	d="
M68.504364,40.032917 
	C68.645851,39.193279 68.787346,38.353645 69.279617,37.069748 
	C69.630394,36.625488 70.060402,36.674343 70.060402,36.674343 
	C70.055878,36.881302 70.051361,37.088257 70.086609,37.603264 
	C70.176353,47.354305 70.226326,56.797298 70.404495,66.705139 
	C70.532684,67.169983 70.534302,67.568275 70.384995,67.699860 
	C69.758942,65.333565 69.004341,62.851070 68.865021,60.334518 
	C68.599190,55.532608 68.684158,50.711277 68.643288,45.030205 
	C68.610168,42.785904 68.557266,41.409412 68.504364,40.032917 
z"/>
<path fill="#2966A7" opacity="1.000000" stroke="none" 
	d="
M22.315948,107.148178 
	C20.598482,107.140541 19.215799,107.085182 17.417603,106.573196 
	C18.336748,99.069221 19.671406,92.021866 21.305031,84.971313 
	C22.365831,84.776413 23.127666,84.584724 24.111210,84.420937 
	C24.588003,84.611183 24.801945,84.816414 24.960304,85.312325 
	C24.945864,85.560120 25.026833,86.050095 25.360458,86.257660 
	C28.415110,86.658287 31.136133,86.851349 34.162014,87.212036 
	C35.306286,88.989967 36.145702,90.600266 36.983849,92.396805 
	C36.982582,92.583031 36.982903,92.955513 36.998150,92.974274 
	C37.013397,92.993042 36.965199,92.996986 36.719986,93.183914 
	C36.157501,94.204674 35.840229,95.038521 35.522957,95.872360 
	C36.345097,95.924629 37.167244,95.976891 38.204811,96.175392 
	C38.599739,96.613396 38.779247,96.905174 38.807140,97.484222 
	C35.418316,100.829826 29.379259,100.955696 28.995880,107.000893 
	C28.552818,107.009911 28.109755,107.018921 27.227486,106.749664 
	C25.858418,106.648109 24.928556,106.824837 23.998693,107.001564 
	C23.549374,107.034523 23.100052,107.067482 22.315948,107.148178 
z"/>
<path fill="#2668A5" opacity="1.000000" stroke="none" 
	d="
M69.629211,99.083458 
	C69.957054,100.776947 69.915329,102.554420 69.936722,104.999084 
	C69.999786,106.110611 69.999725,106.554962 69.999657,106.999313 
	C67.955933,107.028603 65.912209,107.057884 63.431545,107.126968 
	C60.625511,107.115074 58.256416,107.063385 55.336166,106.733353 
	C53.856682,106.635468 52.928349,106.815910 52.000011,106.996353 
	C50.288029,106.996002 48.576050,106.995644 46.434891,106.550491 
	C46.007511,103.793678 46.009312,101.481667 46.453518,99.118454 
	C48.960430,98.898445 51.024940,98.729637 53.151848,98.651268 
	C53.214245,98.741707 53.061268,98.899483 53.061268,98.899483 
	C53.139175,101.768005 54.390068,103.355743 57.430771,102.553085 
	C61.395378,101.506538 65.318611,100.303276 69.629211,99.083458 
z"/>
<path fill="#2D67A2" opacity="1.000000" stroke="none" 
	d="
M29.456818,107.013618 
	C29.379259,100.955696 35.418316,100.829826 38.977486,97.475235 
	C39.299442,97.178978 39.640507,97.168175 39.740883,97.388565 
	C40.219994,97.895020 40.598724,98.181084 41.212555,98.665436 
	C41.628651,98.960037 41.809650,99.056358 41.989403,99.552048 
	C41.658905,102.297928 41.329659,104.644440 41.000412,106.990959 
	C37.306190,107.002754 33.611973,107.014549 29.456818,107.013618 
z"/>
<path fill="#2D6BA7" opacity="1.000000" stroke="none" 
	d="
M41.417480,107.003166 
	C41.329659,104.644440 41.658905,102.297928 42.389469,99.496101 
	C43.864231,99.083740 44.937672,99.126694 46.011116,99.169647 
	C46.009312,101.481667 46.007511,103.793678 46.007179,106.538742 
	C44.617279,106.986320 43.225914,107.000847 41.417480,107.003166 
z"/>
<path fill="#2B6FA8" opacity="1.000000" stroke="none" 
	d="
M52.374840,107.008423 
	C52.928349,106.815910 53.856682,106.635468 54.892097,106.724426 
	C54.249344,107.002716 53.499504,107.011604 52.374840,107.008423 
z"/>
<path fill="#2D6BA7" opacity="1.000000" stroke="none" 
	d="
M24.373951,107.014122 
	C24.928556,106.824837 25.858418,106.648109 26.895151,106.743439 
	C26.251083,107.019226 25.500145,107.022957 24.373951,107.014122 
z"/>
<path fill="#315E99" opacity="1.000000" stroke="none" 
	d="
M57.464687,21.202536 
	C57.397507,20.990166 57.330322,20.777794 57.354912,20.104570 
	C57.658886,19.446983 57.849079,19.230869 58.017250,18.995378 
	C58.763008,18.996693 59.508762,18.998007 60.627419,19.000084 
	C61.003044,19.432459 61.005768,19.864071 60.650787,20.635300 
	C59.350281,21.050791 58.407486,21.126663 57.464687,21.202536 
z"/>
<path fill="#265993" opacity="1.000000" stroke="none" 
	d="
M57.873894,18.819736 
	C57.849079,19.230869 57.658886,19.446983 57.280777,19.778782 
	C57.094330,19.493757 57.073776,19.073666 57.064140,18.338076 
	C57.311619,18.210693 57.530113,18.417868 57.873894,18.819736 
z"/>
<path fill="#345F7F" opacity="1.000000" stroke="none" 
	d="
M70.206932,36.367699 
	C70.060402,36.674343 69.630394,36.625488 69.417862,36.666748 
	C69.205330,36.708004 69.141510,36.336037 69.159729,35.745178 
	C69.201942,32.465244 69.225937,29.776175 69.427795,26.940437 
	C69.770157,26.529217 69.886452,26.244944 69.954552,25.940950 
	C70.148750,25.691885 70.370049,25.469833 70.810143,25.137791 
	C71.009377,27.041889 71.016922,29.082993 71.039948,31.561127 
	C70.821442,33.352459 70.587448,34.706760 70.206932,36.367699 
z"/>
<path fill="#28619C" opacity="1.000000" stroke="none" 
	d="
M24.164503,23.058176 
	C23.571396,23.540697 22.978289,24.023218 22.021280,24.867670 
	C21.657379,25.229601 21.460854,25.584368 21.460854,25.584368 
	C21.460854,25.584368 21.723248,25.893539 21.723248,25.893539 
	C21.604633,26.204266 21.486019,26.514992 21.140806,27.560802 
	C21.040764,30.840445 21.167320,33.385002 21.293877,35.929558 
	C21.252295,36.109642 21.210711,36.289726 20.888256,36.739464 
	C20.607388,37.009113 20.157619,37.067936 19.833836,36.924248 
	C18.996901,35.523167 18.483751,34.265781 17.976950,32.572624 
	C17.771912,26.615768 17.574621,21.090059 13.012449,16.659151 
	C12.990008,15.884219 12.976733,15.441413 12.974789,14.580573 
	C12.305391,10.766736 11.624664,7.370934 10.943938,3.975132 
	C10.943938,3.975132 11.437897,3.932647 11.685059,3.932266 
	C13.954649,6.253136 15.802569,8.764105 18.054674,10.835664 
	C19.859293,12.495613 22.154642,13.622065 24.616495,15.481686 
	C25.332315,17.881409 25.663847,19.784723 26.080887,21.794037 
	C26.365377,22.196804 26.564362,22.493578 26.763346,22.790352 
	C26.264107,22.888474 25.764868,22.986595 24.953480,22.945507 
	C24.389774,22.735086 24.230831,22.819046 24.164503,23.058176 
z"/>
<path fill="#1D62A2" opacity="1.000000" stroke="none" 
	d="
M25.995380,21.688038 
	C25.663847,19.784723 25.332315,17.881409 24.994030,15.492056 
	C26.070974,13.684144 27.154673,12.362267 28.612690,11.026762 
	C29.265419,13.725773 29.543829,16.438416 29.957806,19.869884 
	C30.176281,20.794931 30.259190,21.001150 30.342096,21.207367 
	C30.342096,21.207367 30.247759,21.283915 29.858246,21.286701 
	C28.310949,21.422338 27.153164,21.555189 25.995380,21.688038 
z"/>
<path fill="#2B6FA8" opacity="1.000000" stroke="none" 
	d="
M70.416534,107.005371 
	C69.999725,106.554962 69.999786,106.110611 70.000549,105.332962 
	C72.042664,104.999771 74.084068,104.999878 76.562332,104.999649 
	C76.999718,105.444443 77.000244,105.889580 77.000359,106.668686 
	C76.556366,107.012024 76.112770,107.021385 75.337105,107.051117 
	C73.614487,107.051468 72.223946,107.031448 70.416534,107.005371 
z"/>
<path fill="#EAFEFF" opacity="1.000000" stroke="none" 
	d="
M69.249924,27.087103 
	C69.225937,29.776175 69.201942,32.465244 69.053879,35.588966 
	C68.286209,32.637772 67.642616,29.251928 67.006989,25.410713 
	C67.504272,25.196466 67.993599,25.437593 68.696350,26.147886 
	C69.023170,26.773733 69.136543,26.930418 69.249924,27.087103 
z"/>
<path fill="#30557B" opacity="1.000000" stroke="none" 
	d="
M57.374165,21.325687 
	C58.407486,21.126663 59.350281,21.050791 60.654911,20.959005 
	C62.244102,21.438017 63.471462,21.932941 64.842262,22.740044 
	C63.313766,23.150528 61.641834,23.248833 59.309631,23.178314 
	C58.447884,22.990421 58.246399,22.971355 58.006462,22.858433 
	C57.968006,22.764578 58.050396,22.579210 57.965096,22.450144 
	C57.745457,22.160446 57.584087,22.034418 57.269653,21.928577 
	C57.143620,21.914162 57.073093,21.670448 57.073093,21.670448 
	C57.073093,21.670448 57.283642,21.448837 57.374165,21.325687 
z"/>
<path fill="#6A93B4" opacity="1.000000" stroke="none" 
	d="
M69.427795,26.940437 
	C69.136543,26.930418 69.023170,26.773733 68.907631,26.326729 
	C69.079132,26.005747 69.252792,25.975088 69.690506,25.942688 
	C69.886452,26.244944 69.770157,26.529217 69.427795,26.940437 
z"/>
<path fill="#367AB1" opacity="1.000000" stroke="none" 
	d="
M12.112360,106.300690 
	C11.987996,102.971680 11.997363,99.940529 12.257997,96.579185 
	C13.005378,96.498787 13.501492,96.748589 14.000683,97.441315 
	C14.334554,101.234093 14.665347,104.583954 14.996140,107.933807 
	C14.996140,107.933807 15.009475,107.996483 15.012964,108.029114 
	C14.093000,107.574020 13.169546,107.086296 12.112360,106.300690 
z"/>
<path fill="#367CB2" opacity="1.000000" stroke="none" 
	d="
M12.963458,14.998608 
	C12.976733,15.441413 12.990008,15.884219 12.970002,17.038155 
	C12.634248,19.494732 12.331774,21.240175 12.021258,23.403711 
	C12.006628,25.215769 12.000038,26.609737 11.993448,28.003704 
	C10.257285,27.348366 8.521122,26.693026 6.430117,26.029345 
	C6.319141,23.944489 6.563006,21.867977 6.970273,19.052427 
	C7.421147,16.877024 7.708620,15.440656 8.359393,14.029512 
	C10.136282,14.369362 11.549870,14.683985 12.963458,14.998608 
z"/>
<path fill="#3075AB" opacity="1.000000" stroke="none" 
	d="
M7.996092,14.004288 
	C7.708620,15.440656 7.421147,16.877024 7.050848,18.672916 
	C6.531828,19.023579 6.095634,19.014715 5.332026,19.000462 
	C5.212416,17.535305 5.420221,16.075537 6.160282,14.309816 
	C7.127057,14.004004 7.561574,14.004146 7.996092,14.004288 
z"/>
<path fill="#2D6BA7" opacity="1.000000" stroke="none" 
	d="
M15.272244,107.879341 
	C14.665347,104.583954 14.334554,101.234093 14.001827,96.987411 
	C14.005078,93.060570 14.010260,90.030548 14.332697,86.882614 
	C16.721262,84.863159 18.792574,82.961617 20.913221,81.049698 
	C20.962557,81.039314 20.982342,81.138184 20.968357,81.521439 
	C20.971601,82.927971 20.988834,83.951241 21.006065,84.974518 
	C19.671406,92.021866 18.336748,99.069221 17.002264,106.560638 
	C16.517742,107.278091 16.033045,107.551483 15.272244,107.879341 
z"/>
<path fill="#3973AA" opacity="1.000000" stroke="none" 
	d="
M8.359393,14.029512 
	C7.561574,14.004146 7.127057,14.004004 6.367439,14.006433 
	C6.023763,13.255505 6.005188,12.502004 5.972825,11.371902 
	C6.899804,9.141410 7.840569,7.287519 8.986895,5.132644 
	C9.627858,4.614126 10.063261,4.396592 10.721300,4.077095 
	C11.624664,7.370934 12.305391,10.766736 12.974789,14.580573 
	C11.549870,14.683985 10.136282,14.369362 8.359393,14.029512 
z"/>
<path fill="#4677A2" opacity="1.000000" stroke="none" 
	d="
M6.987748,2.416170 
	C7.499257,2.582761 8.132813,3.020708 8.877249,3.738256 
	C8.362016,3.574414 7.735906,3.130969 6.987748,2.416170 
z"/>
<path fill="#F4FDFD" opacity="1.000000" stroke="none" 
	d="
M24.974745,85.064529 
	C24.801945,84.816414 24.588003,84.611183 24.002663,84.111794 
	C22.775719,82.895897 21.879030,82.017036 20.982342,81.138184 
	C20.982342,81.138184 20.962557,81.039314 20.931877,80.602844 
	C20.850990,77.518356 20.800783,74.870338 20.904804,71.761261 
	C21.186337,61.868404 21.313643,52.436600 21.440948,43.004795 
	C23.575069,43.978973 25.709190,44.953152 28.159277,46.303394 
	C28.390238,47.118183 28.305233,47.556904 28.110807,48.060440 
	C27.934494,48.244644 27.781603,48.409031 27.816271,48.475285 
	C27.937149,48.706303 28.122917,48.903370 28.438465,49.090309 
	C28.592907,49.067284 28.904871,49.052849 28.819738,49.414536 
	C28.650812,50.514656 28.567019,51.253090 28.224518,52.184837 
	C27.930954,54.260757 27.896097,56.143375 27.895418,58.437725 
	C27.966917,60.225819 28.004240,61.602177 27.829750,63.328018 
	C27.442945,66.715141 26.996351,69.774704 27.238901,72.778625 
	C27.324877,73.843399 29.089254,74.772652 30.316761,75.833267 
	C30.546116,75.902756 30.988503,76.087227 31.165236,76.344139 
	C32.889278,76.842636 34.436584,77.084221 36.108116,77.509186 
	C36.387791,77.944221 36.526325,78.204865 36.588776,78.740219 
	C36.672966,79.334404 36.816326,79.662872 36.978233,80.235100 
	C36.996773,80.478867 37.098118,80.957184 36.761131,81.087555 
	C35.575272,82.908142 34.726391,84.598366 33.655022,86.229828 
	C33.432529,86.171074 33.018044,85.971024 32.765381,85.648651 
	C30.000063,85.239037 27.487404,85.151779 24.974745,85.064529 
z"/>
<path fill="#31639C" opacity="1.000000" stroke="none" 
	d="
M35.999062,29.006599 
	C36.873241,26.859560 37.747421,24.712521 38.852795,22.187027 
	C39.083988,21.808575 39.220585,21.806978 39.503418,22.031834 
	C40.086674,24.449982 40.998093,26.775591 40.557846,28.808485 
	C39.693336,32.800465 36.099091,33.625683 32.983093,30.736996 
	C32.992981,30.540070 33.016273,30.146410 33.349632,30.086905 
	C34.455013,29.687134 35.227039,29.346867 35.999062,29.006599 
z"/>
<path fill="#8BB7DA" opacity="1.000000" stroke="none" 
	d="
M21.357105,42.671219 
	C21.313643,52.436600 21.186337,61.868404 20.688053,71.812126 
	C20.317074,72.324043 19.882090,72.228409 19.934776,71.745087 
	C20.032330,61.136894 20.077192,51.012016 20.356457,40.921249 
	C20.590857,40.955364 21.064056,40.977966 21.064056,40.977966 
	C21.133791,41.431194 21.203526,41.884418 21.357105,42.671219 
z"/>
<path fill="#E8FAFD" opacity="1.000000" stroke="none" 
	d="
M48.926796,19.196625 
	C50.194878,20.541258 51.840351,21.695263 52.639263,23.276884 
	C53.734772,25.445675 54.188068,27.938862 54.738361,30.756296 
	C54.560143,31.219563 54.083954,31.266193 53.841007,30.972710 
	C51.990597,27.454432 50.383133,24.229639 48.831463,20.706810 
	C48.900440,20.004723 48.913616,19.600674 48.926796,19.196625 
z"/>
<path fill="#345B8B" opacity="1.000000" stroke="none" 
	d="
M48.623611,19.153717 
	C48.913616,19.600674 48.900440,20.004723 48.405334,20.705015 
	C45.022465,21.269833 42.121525,21.538406 39.220585,21.806978 
	C39.220585,21.806978 39.083988,21.808575 39.018387,21.826775 
	C39.025013,21.075134 39.097237,20.305292 39.417953,19.358236 
	C39.666439,19.181021 39.693626,19.208313 40.157627,19.181599 
	C42.785160,19.075752 44.948692,18.996620 47.112225,18.917490 
	C47.514957,18.981930 47.917694,19.046370 48.623611,19.153717 
z"/>
<path fill="#38669E" opacity="1.000000" stroke="none" 
	d="
M28.646238,40.443035 
	C28.555292,39.061298 28.464348,37.679562 28.488062,35.662285 
	C28.756802,34.352871 28.910881,33.678997 29.383820,33.003464 
	C30.128965,32.999901 30.555254,32.997997 30.969231,33.315418 
	C30.654850,34.640781 30.352781,35.646828 29.934605,36.840355 
	C29.974318,37.368202 30.130140,37.708565 30.416615,38.275898 
	C30.470058,39.328766 30.392849,40.154663 30.086727,40.913288 
	C29.857813,40.846020 29.386835,40.769291 29.224726,40.635429 
	C29.062616,40.501564 28.646238,40.443035 28.646238,40.443035 
z"/>
<path fill="#D5EBF5" opacity="1.000000" stroke="none" 
	d="
M21.477516,35.618446 
	C21.167320,33.385002 21.040764,30.840445 21.133278,28.059639 
	C21.455284,30.318039 21.558220,32.812687 21.477516,35.618446 
z"/>
<path fill="#557289" opacity="1.000000" stroke="none" 
	d="
M54.083954,31.266193 
	C54.083954,31.266193 54.560143,31.219563 54.783401,31.133125 
	C55.006660,31.046690 55.399029,31.300497 55.934231,31.542847 
	C57.662849,31.831169 58.856262,31.877142 60.254803,32.021690 
	C60.459927,32.120262 60.897148,32.246788 60.897148,32.246788 
	C60.897148,32.246788 60.831512,32.597187 60.563194,32.787041 
	C60.294876,32.976898 59.858795,33.030994 59.627197,33.032280 
	C59.395603,33.033562 58.932289,33.056728 58.566124,33.042374 
	C56.827957,32.440742 55.455956,31.853468 54.083954,31.266193 
z"/>
<path fill="#D5EBF5" opacity="1.000000" stroke="none" 
	d="
M21.245087,40.724686 
	C21.064056,40.977966 20.590857,40.955364 20.290323,40.705074 
	C19.989790,40.454784 19.831869,40.030697 19.899845,39.663795 
	C20.031088,38.553909 20.094355,37.810921 20.157619,37.067936 
	C20.157619,37.067936 20.607388,37.009113 20.834225,37.011383 
	C21.182747,38.166237 21.304432,39.318817 21.245087,40.724686 
z"/>
<path fill="#617B9A" opacity="1.000000" stroke="none" 
	d="
M29.064962,33.005127 
	C28.910881,33.678997 28.756802,34.352871 28.463123,35.244781 
	C27.967436,34.543289 27.611349,33.623753 27.462658,32.223080 
	C27.870979,31.488420 28.062017,31.227655 28.467331,30.980167 
	C28.691500,31.000692 29.143608,31.040318 29.108030,31.366436 
	C29.069956,32.130077 29.067459,32.567604 29.064962,33.005127 
z"/>
<path fill="#6E9AD0" opacity="1.000000" stroke="none" 
	d="
M28.220230,47.995625 
	C28.305233,47.556904 28.390238,47.118183 28.481585,46.342995 
	C28.503080,44.905754 28.518232,43.804985 28.679773,42.349037 
	C28.826162,41.993858 29.161024,42.043198 29.362646,42.033203 
	C29.564268,42.023209 29.968266,42.006729 30.013994,42.379013 
	C30.122982,43.498714 30.186239,44.246132 30.188148,45.364185 
	C30.136154,46.484932 30.145514,47.235043 30.092777,48.248241 
	C29.985569,48.685814 29.940456,48.860291 29.647678,49.036583 
	C29.400009,49.038399 28.904871,49.052849 28.904871,49.052849 
	C28.904871,49.052849 28.592907,49.067284 28.480114,48.807663 
	C28.318291,48.363899 28.269260,48.179764 28.220230,47.995625 
z"/>
<path fill="#8EBCD5" opacity="1.000000" stroke="none" 
	d="
M26.080887,21.794035 
	C27.153164,21.555189 28.310949,21.422338 29.827908,21.339325 
	C29.273233,21.898575 28.359381,22.407984 27.104439,22.853872 
	C26.564362,22.493578 26.365377,22.196804 26.080887,21.794035 
z"/>
<path fill="#889AA9" opacity="1.000000" stroke="none" 
	d="
M46.829765,18.610214 
	C44.948692,18.996620 42.785160,19.075752 40.135208,18.989799 
	C39.648792,18.824715 39.841072,18.493971 39.841072,18.493971 
	C42.076485,18.430292 44.311893,18.366615 46.829765,18.610214 
z"/>
<path fill="#E8FAFD" opacity="1.000000" stroke="none" 
	d="
M58.015873,23.939960 
	C57.530560,24.242449 57.045246,24.544935 56.280426,24.921055 
	C56.028450,24.165056 56.055984,23.335424 56.111530,22.091976 
	C56.139542,21.678160 56.606625,21.721899 56.839859,21.696175 
	C57.073093,21.670448 57.143620,21.914162 57.264870,22.121935 
	C57.386120,22.329708 57.663300,22.600578 57.663300,22.600578 
	C57.663300,22.600578 58.050396,22.579210 58.050396,22.579210 
	C58.050396,22.579210 57.968006,22.764578 57.988670,23.105070 
	C58.009338,23.445562 58.015873,23.939962 58.015873,23.939960 
z"/>
<path fill="#E8FAFD" opacity="1.000000" stroke="none" 
	d="
M60.886833,31.900959 
	C60.897148,32.246788 60.459927,32.120262 60.139297,31.787231 
	C59.542809,31.244352 59.266949,31.034504 58.991093,30.824654 
	C58.992901,30.418455 58.994705,30.012257 58.998333,29.301344 
	C59.625610,29.849463 60.251064,30.702295 60.886833,31.900959 
z"/>
<path fill="#9AC2E1" opacity="1.000000" stroke="none" 
	d="
M35.581619,28.987263 
	C35.227039,29.346867 34.455013,29.687134 33.014595,30.026159 
	C31.897043,29.956608 31.447884,29.888298 30.997198,29.649788 
	C30.995672,29.479589 30.990711,29.139217 30.990711,29.139217 
	C32.381866,29.082119 33.773018,29.025023 35.581619,28.987263 
z"/>
<path fill="#96B2C9" opacity="1.000000" stroke="none" 
	d="
M58.595139,30.892632 
	C59.266949,31.034504 59.542809,31.244352 59.934174,31.688658 
	C58.856262,31.877142 57.662849,31.831169 56.158150,31.609589 
	C56.630970,31.276190 57.415077,31.118399 58.595139,30.892632 
z"/>
<path fill="#A6C0D1" opacity="1.000000" stroke="none" 
	d="
M30.665649,29.100891 
	C30.990711,29.139217 30.995672,29.479589 30.641335,29.714350 
	C29.577740,30.080534 28.868479,30.211958 28.102634,30.217178 
	C28.046049,30.090973 27.937654,29.836479 27.937654,29.836479 
	C28.738632,29.578508 29.539608,29.320538 30.665649,29.100891 
z"/>
<path fill="#8DA4BD" opacity="1.000000" stroke="none" 
	d="
M28.243162,30.959642 
	C28.062017,31.227655 27.870979,31.488420 27.486839,31.900572 
	C27.350693,31.454258 27.397760,30.849310 27.691240,30.040421 
	C27.937654,29.836479 28.046049,30.090973 28.118769,30.371912 
	C28.191488,30.652851 28.243162,30.959642 28.243162,30.959642 
z"/>
<path fill="#8EBCD5" opacity="1.000000" stroke="none" 
	d="
M30.620449,21.141207 
	C30.259190,21.001150 30.176281,20.794931 30.039818,20.259476 
	C30.335653,19.821899 30.685045,19.713564 31.308865,19.618927 
	C31.355131,20.113430 31.126966,20.594238 30.620449,21.141207 
z"/>
<path fill="#5681B5" opacity="1.000000" stroke="none" 
	d="
M33.085220,16.518494 
	C32.775757,16.300608 32.728619,15.971813 33.044258,15.335252 
	C33.590843,14.978720 33.774651,14.929953 33.958454,14.881186 
	C33.958454,14.881186 33.883698,14.881159 33.877811,14.844893 
	C33.697132,15.341612 33.522339,15.874599 33.085220,16.518494 
z"/>
<path fill="#D5EBF5" opacity="1.000000" stroke="none" 
	d="
M21.830719,25.809458 
	C21.723248,25.893539 21.460854,25.584368 21.460854,25.584368 
	C21.460854,25.584368 21.657379,25.229601 21.860207,25.217560 
	C22.096121,25.396749 22.054506,25.570036 21.830719,25.809458 
z"/>
<path fill="#5782A7" opacity="1.000000" stroke="none" 
	d="
M24.328377,23.140682 
	C24.230831,22.819046 24.389774,22.735086 24.703524,22.892406 
	C24.765718,22.978519 24.492250,23.223186 24.328377,23.140682 
z"/>
<path fill="#B3CFDC" opacity="1.000000" stroke="none" 
	d="
M28.512703,40.662106 
	C28.646238,40.443035 29.062616,40.501564 29.134113,40.948151 
	C29.190748,41.610889 29.175886,41.827042 29.161024,42.043198 
	C29.161024,42.043198 28.826162,41.993858 28.666634,41.936260 
	C28.464460,41.546165 28.421814,41.213673 28.512703,40.662106 
z"/>
<path fill="#586F8E" opacity="1.000000" stroke="none" 
	d="
M39.700012,18.567635 
	C39.841072,18.493971 39.648792,18.824715 39.671211,19.016514 
	C39.693626,19.208313 39.666439,19.181021 39.654465,19.179291 
	C39.642490,19.177563 39.435051,18.935163 39.435051,18.935163 
	C39.435051,18.935163 39.558952,18.641298 39.700012,18.567635 
z"/>
<path fill="#718FA9" opacity="1.000000" stroke="none" 
	d="
M33.878323,14.694693 
	C33.774651,14.929953 33.590843,14.978720 33.128689,15.096355 
	C33.166290,14.946215 33.482239,14.727206 33.878323,14.694693 
z"/>
<path fill="#3277B0" opacity="1.000000" stroke="none" 
	d="
M14.015442,87.000526 
	C14.010260,90.030548 14.005078,93.060570 13.998751,96.544495 
	C13.501492,96.748589 13.005378,96.498787 12.260996,96.125137 
	C12.003131,91.977211 11.993535,87.953148 11.977236,83.466309 
	C11.978758,68.649559 11.986982,54.295574 11.992109,39.473564 
	C11.992680,37.937202 11.996346,36.868866 12.255907,35.513893 
	C13.005869,35.486355 13.499933,35.745457 13.995371,36.462143 
	C14.001938,40.279587 14.007131,43.639439 14.009256,47.461037 
	C14.009274,60.948696 14.012358,73.974609 14.015442,87.000526 
z"/>
<path fill="#3073AB" opacity="1.000000" stroke="none" 
	d="
M13.993998,36.004559 
	C13.499933,35.745457 13.005869,35.486355 12.257034,35.113388 
	C12.000299,32.958778 11.998331,30.918034 11.994906,28.440498 
	C12.000038,26.609737 12.006628,25.215769 12.348000,23.591328 
	C13.124037,26.572882 13.565291,29.784910 14.005250,33.372841 
	C14.000635,34.500679 13.997316,35.252617 13.993998,36.004559 
z"/>
<path fill="#2E69A8" opacity="1.000000" stroke="none" 
	d="
M36.647949,78.474503 
	C36.526325,78.204865 36.387791,77.944221 36.102165,77.201080 
	C35.929325,76.508636 35.886662,76.307663 35.881599,75.852341 
	C35.935349,75.427277 35.951492,75.256561 36.061852,74.735275 
	C38.097424,70.265709 40.812008,70.449066 44.252758,72.638054 
	C46.370697,73.985466 48.784153,74.939774 51.168674,75.774033 
	C53.052883,76.433235 55.095230,76.640427 57.059200,77.250046 
	C57.051052,77.451744 57.048618,77.855461 56.996723,78.085205 
	C56.944828,78.314957 56.941261,78.786011 56.941261,78.786011 
	C56.184372,79.060532 55.427483,79.335060 54.203312,80.036263 
	C53.694328,80.724358 53.652622,80.985771 53.610909,81.247192 
	C53.178024,82.328743 52.745144,83.410294 52.153900,84.761185 
	C51.995541,85.030518 51.925850,84.981705 51.714447,85.124084 
	C51.504436,85.589600 51.505836,85.912735 51.507236,86.235870 
	C51.415325,86.628967 51.323414,87.022064 50.932884,87.822800 
	C50.406067,88.426628 50.194656,88.639496 49.565300,88.898323 
	C47.099613,88.952675 45.068665,88.977745 42.776306,88.795624 
	C41.432957,86.646568 40.351021,84.704720 39.341488,82.458855 
	C39.283085,81.764511 39.152287,81.374199 38.918304,80.686340 
	C38.709583,80.207314 38.604046,80.025826 38.375916,79.630753 
	C37.718193,79.102951 37.183071,78.788727 36.647949,78.474503 
z"/>
<path fill="#E9FDFE" opacity="1.000000" stroke="none" 
	d="
M39.269089,82.762878 
	C40.351021,84.704720 41.432957,86.646568 42.772293,89.004250 
	C43.029697,89.420082 43.055492,89.836922 43.055492,89.836922 
	C42.619450,91.053192 42.183403,92.269463 41.644577,93.772423 
	C42.620148,94.596779 43.678242,95.490868 44.867722,96.697144 
	C44.999111,97.009323 44.994286,97.058716 44.548584,97.044609 
	C42.615421,97.076393 41.127964,97.122284 39.640507,97.168175 
	C39.640507,97.168175 39.299442,97.178978 39.129097,97.187965 
	C38.779247,96.905174 38.599739,96.613396 38.133011,95.852020 
	C37.552261,94.587273 37.258732,93.792130 36.965199,92.996986 
	C36.965199,92.996986 37.013397,92.993042 37.140457,92.905289 
	C37.267517,92.817543 37.370464,92.421997 37.370464,92.421997 
	C37.370464,92.421997 36.985119,92.210571 36.985115,92.210571 
	C36.145702,90.600266 35.306286,88.989967 34.163101,87.022964 
	C33.859337,86.666267 33.877514,86.288582 33.877514,86.288582 
	C34.726391,84.598366 35.575272,82.908142 36.981266,81.088089 
	C37.538383,80.958252 37.969223,81.062759 38.036713,81.344620 
	C38.492496,82.005280 38.880791,82.384079 39.269089,82.762878 
z"/>
<path fill="#3067A9" opacity="1.000000" stroke="none" 
	d="
M60.815411,49.073856 
	C60.918377,50.771187 61.021347,52.468513 61.060455,54.828125 
	C60.871395,55.663494 60.746189,55.836582 60.245796,55.982590 
	C56.210312,53.742252 55.658703,43.802341 58.948658,39.447342 
	C59.253998,42.912178 59.540684,45.935654 60.071312,49.014191 
	C60.481979,49.070793 60.648697,49.072327 60.815411,49.073856 
z"/>
<path fill="#C5E4FE" opacity="1.000000" stroke="none" 
	d="
M62.949886,57.049923 
	C62.928833,59.470169 62.907784,61.890415 62.693375,64.859543 
	C62.294037,65.538223 62.129486,65.708168 61.826210,65.842323 
	C61.646057,65.766380 61.255695,65.736824 61.199409,65.435783 
	C60.997200,64.756065 60.851273,64.377396 60.827625,63.643509 
	C61.036621,62.542255 61.123333,61.796204 61.399010,60.753010 
	C61.752399,59.292263 61.916821,58.128666 62.298687,56.983368 
	C62.516132,57.001667 62.949886,57.049923 62.949886,57.049923 
z"/>
<path fill="#DAF0FB" opacity="1.000000" stroke="none" 
	d="
M54.539467,96.989075 
	C54.992554,97.007942 55.002480,97.498032 54.700447,97.704056 
	C54.118679,97.978188 53.939640,98.150795 53.861294,98.427887 
	C53.861294,98.427887 53.436615,98.622215 53.248940,98.760849 
	C53.061268,98.899483 53.214245,98.741707 52.790024,98.492920 
	C49.918045,98.108902 47.470284,97.973686 45.014942,97.643555 
	C45.007362,97.448631 44.994286,97.058716 44.994286,97.058716 
	C44.994286,97.058716 44.999111,97.009323 45.000824,96.984100 
	C48.030483,96.962654 51.058434,96.966431 54.539467,96.989075 
z"/>
<path fill="#6892BB" opacity="1.000000" stroke="none" 
	d="
M60.972500,48.633392 
	C60.648697,49.072327 60.481979,49.070793 60.114758,48.562088 
	C59.994774,44.710835 60.075294,41.366753 60.372231,38.014763 
	C60.588646,38.006851 61.021740,38.001575 61.021740,38.001575 
	C61.057690,41.398693 61.093639,44.795807 60.972500,48.633392 
z"/>
<path fill="#5A7489" opacity="1.000000" stroke="none" 
	d="
M43.453285,89.889099 
	C43.055492,89.836922 43.029697,89.420082 43.033707,89.211456 
	C45.068665,88.977745 47.099613,88.952675 49.824936,88.921410 
	C50.693134,88.919212 50.866962,88.923195 51.040787,88.927185 
	C48.644218,89.265213 46.247650,89.603241 43.453285,89.889099 
z"/>
<path fill="#EAFEFF" opacity="1.000000" stroke="none" 
	d="
M68.263123,40.202209 
	C68.557266,41.409412 68.610168,42.785904 68.564896,44.566483 
	C68.318443,43.437546 68.170166,41.904526 68.263123,40.202209 
z"/>
<path fill="#A4CAEF" opacity="1.000000" stroke="none" 
	d="
M62.006359,65.918266 
	C62.129486,65.708168 62.294037,65.538223 62.648865,65.313675 
	C62.862926,67.542679 62.928139,69.866440 62.788769,72.571182 
	C62.584183,72.952164 62.296753,72.808052 62.249931,72.384521 
	C62.137527,69.946747 62.071941,67.932503 62.006359,65.918266 
z"/>
<path fill="#759BBC" opacity="1.000000" stroke="none" 
	d="
M64.827530,85.568916 
	C64.044632,86.179214 62.929581,86.665016 61.487152,87.123413 
	C62.271645,86.545479 63.383511,85.994949 64.827530,85.568916 
z"/>
<path fill="#3E5D77" opacity="1.000000" stroke="none" 
	d="
M57.048618,77.855461 
	C57.048618,77.855461 57.051052,77.451744 57.442314,77.237091 
	C58.859455,76.991066 59.885334,76.959686 61.155056,76.946739 
	C61.398903,76.965172 61.886105,76.984352 62.069157,77.060326 
	C62.252209,77.136299 62.647331,77.167915 62.647331,77.167915 
	C62.671707,77.456886 62.559441,77.675819 61.738350,77.921188 
	C59.793648,77.963600 58.421131,77.909531 57.048618,77.855461 
z"/>
<path fill="#658DB3" opacity="1.000000" stroke="none" 
	d="
M61.051613,37.579948 
	C61.021740,38.001575 60.588646,38.006851 60.328667,37.598988 
	C59.998722,35.804413 59.928761,34.417706 59.858795,33.030994 
	C59.858795,33.030994 60.294876,32.976898 60.513645,32.958263 
	C60.848770,34.345860 60.965130,35.752087 61.051613,37.579948 
z"/>
<path fill="#718FA9" opacity="1.000000" stroke="none" 
	d="
M56.996723,78.085205 
	C58.421131,77.909531 59.793648,77.963600 61.578445,78.030518 
	C60.564442,78.343353 59.138153,78.643341 57.326565,78.864670 
	C56.941261,78.786011 56.944828,78.314957 56.996723,78.085205 
z"/>
<path fill="#DDF8FF" opacity="1.000000" stroke="none" 
	d="
M62.894135,56.777107 
	C62.949886,57.049923 62.516132,57.001667 62.066475,56.937874 
	C61.616814,56.874084 61.144833,56.899284 61.032089,56.666157 
	C60.819889,56.291912 60.720440,56.150791 60.620987,56.009674 
	C60.746189,55.836582 60.871395,55.663494 61.188965,55.234138 
	C61.867016,55.486679 62.352699,55.995483 62.894135,56.777107 
z"/>
<path fill="#7AA4C8" opacity="1.000000" stroke="none" 
	d="
M62.780563,76.774261 
	C62.647331,77.167915 62.252209,77.136299 62.111732,76.678230 
	C61.914524,75.193733 61.857796,74.167313 61.925026,73.057724 
	C62.048977,72.974564 62.296753,72.808052 62.296753,72.808052 
	C62.296753,72.808052 62.584183,72.952164 62.733627,73.010612 
	C62.893311,74.172905 62.903553,75.276756 62.780563,76.774261 
z"/>
<path fill="#417CAA" opacity="1.000000" stroke="none" 
	d="
M51.118042,88.687431 
	C50.866962,88.923195 50.693134,88.919212 50.259678,88.892136 
	C50.194656,88.639496 50.406067,88.426628 50.822281,88.104767 
	C51.071953,88.135292 51.133625,88.291481 51.118042,88.687431 
z"/>
<path fill="#DDF8FF" opacity="1.000000" stroke="none" 
	d="
M62.497322,50.497231 
	C62.505634,50.518482 62.489006,50.475979 62.497322,50.497231 
z"/>
<path fill="#658DB3" opacity="1.000000" stroke="none" 
	d="
M51.985302,85.071808 
	C51.975063,85.113098 52.094696,84.958542 52.094696,84.958542 
	C52.094696,84.958542 52.225063,85.148933 52.178593,85.122856 
	C52.132122,85.096779 51.925850,84.981705 51.925850,84.981705 
	C51.925850,84.981705 51.995541,85.030518 51.985302,85.071808 
z"/>
<path fill="#ABC2CE" opacity="1.000000" stroke="none" 
	d="
M51.714447,85.124084 
	C51.925850,84.981705 52.132122,85.096779 52.161140,85.209457 
	C52.114193,85.502663 52.038227,85.683197 51.734749,86.049805 
	C51.505836,85.912735 51.504436,85.589600 51.714447,85.124084 
z"/>
<path fill="#83B5D0" opacity="1.000000" stroke="none" 
	d="
M53.811264,81.156929 
	C53.652622,80.985771 53.694328,80.724358 54.004108,80.168434 
	C54.185329,80.271507 54.098473,80.669083 53.811264,81.156929 
z"/>
<path fill="#A5B6C3" opacity="1.000000" stroke="none" 
	d="
M58.235252,23.916576 
	C58.015873,23.939962 58.009338,23.445562 58.027126,23.198925 
	C58.246399,22.971355 58.447884,22.990421 58.889500,23.195948 
	C59.004478,23.684637 58.779476,23.854898 58.235252,23.916576 
z"/>
<path fill="#9DB8C1" opacity="1.000000" stroke="none" 
	d="
M54.070190,98.489090 
	C53.939640,98.150795 54.118679,97.978188 54.591305,97.923508 
	C54.795128,98.289001 54.626759,98.493454 54.070190,98.489090 
z"/>
<path fill="#3D749A" opacity="1.000000" stroke="none" 
	d="
M20.968357,81.521439 
	C21.879030,82.017036 22.775719,82.895897 23.780956,84.083893 
	C23.127666,84.584724 22.365831,84.776413 21.305031,84.971313 
	C20.988834,83.951241 20.971601,82.927971 20.968357,81.521439 
z"/>
<path fill="#2D67A2" opacity="1.000000" stroke="none" 
	d="
M36.719986,93.183914 
	C37.258732,93.792130 37.552261,94.587273 37.917591,95.705788 
	C37.167244,95.976891 36.345097,95.924629 35.522957,95.872360 
	C35.840229,95.038521 36.157501,94.204674 36.719986,93.183914 
z"/>
<path fill="#3E5F85" opacity="1.000000" stroke="none" 
	d="
M33.655022,86.229828 
	C33.877514,86.288582 33.859337,86.666267 33.858246,86.855339 
	C31.136133,86.851349 28.415110,86.658287 25.801758,86.232918 
	C28.278967,85.990746 30.648506,85.980888 33.018044,85.971024 
	C33.018044,85.971024 33.432529,86.171074 33.655022,86.229828 
z"/>
<path fill="#799AC1" opacity="1.000000" stroke="none" 
	d="
M32.765381,85.648659 
	C30.648506,85.980888 28.278967,85.990746 25.468132,86.025352 
	C25.026833,86.050095 24.945864,85.560120 24.960304,85.312325 
	C27.487404,85.151779 30.000063,85.239037 32.765381,85.648659 
z"/>
<path fill="#2D67A2" opacity="1.000000" stroke="none" 
	d="
M36.983849,92.396805 
	C36.985119,92.210571 37.370464,92.421997 37.370464,92.421997 
	C37.370464,92.421997 37.267517,92.817543 37.125210,92.886528 
	C36.982903,92.955513 36.982582,92.583031 36.983849,92.396805 
z"/>
<path fill="#9DB8C1" opacity="1.000000" stroke="none" 
	d="
M45.022522,97.838470 
	C47.470284,97.973686 49.918045,98.108902 52.727631,98.402481 
	C51.024940,98.729637 48.960430,98.898445 46.453518,99.118454 
	C44.937672,99.126694 43.864231,99.083740 42.390720,99.096741 
	C41.809650,99.056358 41.628651,98.960037 41.525661,98.531723 
	C42.743290,98.079300 43.882904,97.958885 45.022522,97.838470 
z"/>
<path fill="#CDF2F7" opacity="1.000000" stroke="none" 
	d="
M45.014942,97.643555 
	C43.882904,97.958885 42.743290,98.079300 41.290565,98.333435 
	C40.598724,98.181084 40.219994,97.895020 39.740883,97.388565 
	C41.127964,97.122284 42.615421,97.076393 44.548584,97.044609 
	C44.994286,97.058716 45.007362,97.448631 45.014942,97.643555 
z"/>
<path fill="#2E6BAA" opacity="1.000000" stroke="none" 
	d="
M13.995371,36.462143 
	C13.997316,35.252617 14.000635,34.500679 14.401950,33.373718 
	C15.856832,33.001934 16.913717,33.005165 17.970604,33.008392 
	C18.483751,34.265781 18.996901,35.523167 19.833836,36.924248 
	C20.094355,37.810921 20.031088,38.553909 19.715706,40.011658 
	C19.281872,43.485462 19.100151,46.244503 18.596176,48.918957 
	C16.853386,48.222675 15.432855,47.610985 14.012323,46.999294 
	C14.007131,43.639439 14.001938,40.279587 13.995371,36.462143 
z"/>
<path fill="#2C6AA4" opacity="1.000000" stroke="none" 
	d="
M17.976950,32.572624 
	C16.913717,33.005165 15.856832,33.001934 14.403246,32.997822 
	C13.565291,29.784910 13.124037,26.572882 12.356040,23.173237 
	C12.331774,21.240175 12.634248,19.494732 12.979170,17.370281 
	C17.574621,21.090059 17.771912,26.615768 17.976950,32.572624 
z"/>
<path fill="#315E99" opacity="1.000000" stroke="none" 
	d="
M57.965096,22.450144 
	C58.050396,22.579210 57.663300,22.600578 57.663300,22.600578 
	C57.663300,22.600578 57.386120,22.329708 57.390907,22.136353 
	C57.584087,22.034418 57.745457,22.160446 57.965096,22.450144 
z"/>
<path fill="#2C6FAB" opacity="1.000000" stroke="none" 
	d="
M14.009256,47.461037 
	C15.432855,47.610985 16.853386,48.222675 18.616779,49.386921 
	C18.970642,51.738960 18.919584,53.541367 19.004154,55.337387 
	C19.269335,60.969021 19.585608,66.598251 19.882090,72.228409 
	C19.882090,72.228409 20.317074,72.324043 20.533825,72.273178 
	C20.800783,74.870338 20.850990,77.518356 20.882542,80.613220 
	C18.792574,82.961617 16.721262,84.863159 14.332697,86.882614 
	C14.012358,73.974609 14.009274,60.948696 14.009256,47.461037 
z"/>
<path fill="#E7FBFF" opacity="1.000000" stroke="none" 
	d="
M30.087404,75.763771 
	C29.089254,74.772652 27.324877,73.843399 27.238901,72.778625 
	C26.996351,69.774704 27.442945,66.715141 28.037918,63.347790 
	C28.457895,63.018078 28.873486,63.070625 28.917868,63.458233 
	C29.037012,64.883133 29.111773,65.920433 29.127331,67.363503 
	C29.097626,68.858673 29.127125,69.948059 29.110630,71.394661 
	C29.364655,72.835197 29.664669,73.918533 30.012978,75.189499 
	C30.061274,75.377136 30.087404,75.763771 30.087404,75.763771 
z"/>
<path fill="#E7FBFF" opacity="1.000000" stroke="none" 
	d="
M27.861242,58.025990 
	C27.896097,56.143375 27.930954,54.260757 28.292498,52.605946 
	C28.628971,54.255676 28.638756,55.677608 28.493576,57.230713 
	C28.167082,57.574333 28.007959,57.795700 27.861242,58.025990 
z"/>
<path fill="#79A6CA" opacity="1.000000" stroke="none" 
	d="
M28.648540,57.099537 
	C28.638756,55.677608 28.628971,54.255676 28.551207,52.412636 
	C28.567019,51.253090 28.650812,50.514656 28.819738,49.414536 
	C28.904871,49.052849 29.400009,49.038399 29.679115,49.479195 
	C29.929243,52.298634 29.900263,54.677277 29.689365,57.029041 
	C29.507448,57.002163 29.142599,56.947456 29.014185,56.969563 
	C28.885771,56.991669 28.648539,57.099537 28.648540,57.099537 
z"/>
<path fill="#82A8CF" opacity="1.000000" stroke="none" 
	d="
M35.843994,76.106689 
	C35.886662,76.307663 35.929325,76.508636 35.977940,77.017700 
	C34.436584,77.084221 32.889278,76.842636 31.171207,76.203522 
	C31.000446,75.805984 31.079250,75.536598 31.462288,75.660164 
	C33.178215,75.891380 34.511105,75.999039 35.843994,76.106689 
z"/>
<path fill="#C2D9E2" opacity="1.000000" stroke="none" 
	d="
M27.895418,58.437725 
	C28.007959,57.795700 28.167082,57.574333 28.493576,57.230713 
	C28.648539,57.099537 28.885771,56.991669 28.969933,57.406059 
	C28.993891,59.570507 28.933689,61.320564 28.873486,63.070625 
	C28.873486,63.070625 28.457895,63.018078 28.249729,62.998306 
	C28.004240,61.602177 27.966917,60.225819 27.895418,58.437725 
z"/>
<path fill="#6182A9" opacity="1.000000" stroke="none" 
	d="
M30.316761,75.833267 
	C30.087404,75.763771 30.061274,75.377136 30.019733,74.785759 
	C29.958416,73.115768 29.938639,72.037148 29.960976,70.976624 
	C30.003092,70.994720 30.079767,71.044975 30.294643,71.030746 
	C30.509518,71.016518 30.940260,70.996086 30.962292,71.373192 
	C31.057068,72.746429 31.129812,73.742569 31.171705,74.938171 
	C31.140854,75.137642 31.079250,75.536598 31.079250,75.536598 
	C31.079250,75.536598 31.000446,75.805984 30.994474,75.946609 
	C30.988503,76.087227 30.546116,75.902756 30.316761,75.833267 
z"/>
<path fill="#96B5D7" opacity="1.000000" stroke="none" 
	d="
M36.588776,78.740219 
	C37.183071,78.788727 37.718193,79.102951 38.238041,79.654404 
	C38.222763,79.891640 37.952568,79.971916 37.704464,79.982651 
	C37.456360,79.993385 36.959690,79.991333 36.959690,79.991333 
	C36.816326,79.662872 36.672966,79.334404 36.588776,78.740219 
z"/>
<path fill="#E7FBFF" opacity="1.000000" stroke="none" 
	d="
M28.110807,48.060440 
	C28.269260,48.179764 28.318291,48.363899 28.325670,48.830688 
	C28.122917,48.903370 27.937149,48.706303 27.816271,48.475285 
	C27.781603,48.409031 27.934494,48.244644 28.110807,48.060440 
z"/>
<path fill="#88AAD1" opacity="1.000000" stroke="none" 
	d="
M36.978233,80.235100 
	C36.959690,79.991333 37.456360,79.993385 37.753494,80.149231 
	C38.050625,80.305069 38.141605,80.639412 38.093151,80.743073 
	C38.044697,80.846725 37.969223,81.062759 37.969223,81.062759 
	C37.969223,81.062759 37.538383,80.958252 37.318253,80.957718 
	C37.098118,80.957184 36.996773,80.478867 36.978233,80.235100 
z"/>
<path fill="#2A67A5" opacity="1.000000" stroke="none" 
	d="
M60.245796,55.982590 
	C60.720440,56.150791 60.819889,56.291912 60.914162,57.073395 
	C61.009335,58.825890 61.109692,59.938023 61.210045,61.050156 
	C61.123333,61.796204 61.036621,62.542255 60.455414,63.629139 
	C57.287090,63.140892 54.662682,62.032814 51.927807,61.548401 
	C47.870579,60.829765 46.421638,58.919998 48.257263,54.845520 
	C49.342796,54.125061 50.171436,53.561192 51.232445,52.926010 
	C51.642937,52.236668 51.821064,51.618633 51.918743,50.649956 
	C50.225140,49.198677 48.611980,48.098042 47.071018,46.646595 
	C46.541348,44.523796 46.352650,41.613056 45.252663,41.213943 
	C42.871609,40.350033 40.023857,40.772385 37.366982,40.668663 
	C37.578735,42.778015 37.790489,44.887371 37.612499,46.964790 
	C35.164272,46.620125 33.105793,46.307392 30.927183,45.817169 
	C30.639542,45.408474 30.453690,45.193096 30.249498,44.993546 
	C30.186239,44.246132 30.122982,43.498714 30.099699,42.122040 
	C30.198330,41.322037 30.256985,41.151299 30.315639,40.980556 
	C30.392849,40.154663 30.470058,39.328766 30.346245,37.928642 
	C30.113720,37.120567 30.082218,36.886719 30.050713,36.652870 
	C30.352781,35.646828 30.654850,34.640781 30.978348,32.989170 
	C31.013771,31.908985 31.027763,31.474367 31.363863,31.022705 
	C32.115047,30.981747 32.544125,30.957832 32.973202,30.933918 
	C36.099091,33.625683 39.693336,32.800465 40.557846,28.808485 
	C40.998093,26.775591 40.086674,24.449982 39.503418,22.031834 
	C42.121525,21.538406 45.022465,21.269833 48.349533,21.003056 
	C50.383133,24.229639 51.990597,27.454432 53.841007,30.972708 
	C55.455956,31.853468 56.827957,32.440742 58.579857,33.464981 
	C58.949837,35.603287 58.939922,37.304634 58.930004,39.005978 
	C55.658703,43.802341 56.210312,53.742252 60.245796,55.982590 
z"/>
<path fill="#547890" opacity="1.000000" stroke="none" 
	d="
M32.983093,30.736994 
	C32.544125,30.957832 32.115047,30.981747 31.046417,31.014597 
	C29.985777,31.029129 29.564693,31.034723 29.143608,31.040318 
	C29.143608,31.040318 28.691500,31.000692 28.467331,30.980167 
	C28.243162,30.959642 28.191488,30.652851 28.175354,30.498116 
	C28.868479,30.211958 29.577740,30.080534 30.642860,29.884548 
	C31.447884,29.888298 31.897043,29.956608 32.681236,30.085665 
	C33.016273,30.146410 32.992981,30.540070 32.983093,30.736994 
z"/>
<path fill="#537EA2" opacity="1.000000" stroke="none" 
	d="
M19.934776,71.745087 
	C19.585608,66.598251 19.269335,60.969021 19.004154,55.337387 
	C18.919584,53.541367 18.970642,51.738960 18.939037,49.471512 
	C19.100151,46.244503 19.281872,43.485462 19.647732,40.378555 
	C19.831869,40.030697 19.989790,40.454784 20.055923,40.670959 
	C20.077192,51.012016 20.032330,61.136894 19.934776,71.745087 
z"/>
<path fill="#3A648E" opacity="1.000000" stroke="none" 
	d="
M29.108030,31.366436 
	C29.564693,31.034723 29.985777,31.029129 30.724308,31.031643 
	C31.027763,31.474367 31.013771,31.908985 30.990662,32.669849 
	C30.555254,32.997997 30.128965,32.999901 29.383820,33.003464 
	C29.067459,32.567604 29.069956,32.130077 29.108030,31.366436 
z"/>
<path fill="#6592CA" opacity="1.000000" stroke="none" 
	d="
M29.934605,36.840355 
	C30.082218,36.886719 30.113720,37.120567 30.215591,37.701668 
	C30.130140,37.708565 29.974318,37.368202 29.934605,36.840355 
z"/>
<path fill="#6592CA" opacity="1.000000" stroke="none" 
	d="
M30.086727,40.913288 
	C30.256985,41.151299 30.198330,41.322037 30.053970,41.749756 
	C29.968266,42.006729 29.564268,42.023209 29.362646,42.033203 
	C29.175886,41.827042 29.190748,41.610889 29.296223,41.082016 
	C29.386835,40.769291 29.857813,40.846020 30.086727,40.913288 
z"/>
<path fill="#355D84" opacity="1.000000" stroke="none" 
	d="
M58.948658,39.447342 
	C58.939922,37.304634 58.949837,35.603287 58.946022,33.479336 
	C58.932289,33.056728 59.395603,33.033562 59.627197,33.032280 
	C59.928761,34.417706 59.998722,35.804413 60.112251,37.606895 
	C60.075294,41.366753 59.994774,44.710835 59.870811,48.507019 
	C59.540684,45.935654 59.253998,42.912178 58.948658,39.447342 
z"/>
<path fill="#4F7CA2" opacity="1.000000" stroke="none" 
	d="
M29.871281,57.055920 
	C29.900263,54.677277 29.929243,52.298634 29.926785,49.477379 
	C29.940456,48.860291 29.985569,48.685814 30.294689,48.259827 
	C30.558699,48.008324 30.964573,48.027031 30.976860,48.441364 
	C31.030626,50.240166 31.072105,51.624634 31.085567,53.345306 
	C30.803356,54.750198 30.549162,55.818890 30.194111,56.942413 
	C30.093254,56.997246 29.871281,57.055920 29.871281,57.055920 
z"/>
<path fill="#4370A7" opacity="1.000000" stroke="none" 
	d="
M30.964573,48.027031 
	C30.964573,48.027031 30.558699,48.008324 30.356785,47.996735 
	C30.145514,47.235043 30.136154,46.484932 30.188148,45.364185 
	C30.453690,45.193096 30.639542,45.408474 30.912403,46.155769 
	C31.000027,47.123585 30.982300,47.575310 30.964573,48.027031 
z"/>
<path fill="#2A69A9" opacity="1.000000" stroke="none" 
	d="
M48.000370,55.002113 
	C46.421638,58.919998 47.870579,60.829765 51.927807,61.548401 
	C54.662682,62.032814 57.287090,63.140892 60.333130,63.984344 
	C60.851273,64.377396 60.997200,64.756065 61.113625,65.878975 
	C61.092049,68.700226 61.099968,70.777237 61.084904,73.263374 
	C61.011684,74.757767 60.961449,75.843040 60.911209,76.928314 
	C59.885334,76.959686 58.859455,76.991066 57.450462,77.035400 
	C55.095230,76.640427 53.052883,76.433235 51.168674,75.774033 
	C48.784153,74.939774 46.370697,73.985466 44.252758,72.638054 
	C40.812008,70.449066 38.097424,70.265709 35.693344,74.711052 
	C34.491585,75.001770 33.752541,74.966141 33.010529,74.516449 
	C32.430027,71.714478 31.852491,69.326576 31.210880,66.950150 
	C31.146805,66.961617 31.018711,66.984863 31.032145,66.583595 
	C31.102497,65.111298 31.159416,64.040268 31.560211,62.942650 
	C33.603062,61.277393 35.302036,59.638725 37.306175,58.142975 
	C39.803150,60.652378 40.537216,64.977478 44.929146,64.294952 
	C45.313889,60.953392 45.656666,57.976334 46.332932,54.999603 
	C47.111069,55.000660 47.555717,55.001389 48.000370,55.002113 
z"/>
<path fill="#587DA4" opacity="1.000000" stroke="none" 
	d="
M33.013493,74.930519 
	C33.752541,74.966141 34.491585,75.001770 35.599136,75.061615 
	C35.951492,75.256561 35.935349,75.427277 35.881599,75.852341 
	C34.511105,75.999039 33.178215,75.891380 31.462288,75.660164 
	C31.079250,75.536598 31.140854,75.137642 31.469107,74.997383 
	C32.202736,74.881584 32.608116,74.906052 33.013493,74.930519 
z"/>
<path fill="#96B5D7" opacity="1.000000" stroke="none" 
	d="
M39.341484,82.458855 
	C38.880791,82.384079 38.492496,82.005280 38.036713,81.344620 
	C37.969223,81.062759 38.044697,80.846725 38.306168,80.847778 
	C38.567642,80.848831 39.021484,80.983879 39.021484,80.983879 
	C39.152287,81.374199 39.283085,81.764511 39.341484,82.458855 
z"/>
<path fill="#7799C9" opacity="1.000000" stroke="none" 
	d="
M38.918304,80.686340 
	C39.021484,80.983879 38.567642,80.848831 38.354622,80.744125 
	C38.141605,80.639412 38.050625,80.305069 38.001595,80.138489 
	C37.952568,79.971916 38.222763,79.891640 38.360634,79.867981 
	C38.604046,80.025826 38.709583,80.207314 38.918304,80.686340 
z"/>
<path fill="#779DC2" opacity="1.000000" stroke="none" 
	d="
M61.107887,72.854256 
	C61.099968,70.777237 61.092049,68.700226 61.169914,66.180016 
	C61.255695,65.736824 61.646057,65.766380 61.826210,65.842323 
	C62.071941,67.932503 62.137527,69.946747 62.249931,72.384521 
	C62.296753,72.808052 62.048977,72.974564 61.753262,72.982574 
	C61.457546,72.990593 61.107883,72.854256 61.107887,72.854256 
z"/>
<path fill="#9CBCD7" opacity="1.000000" stroke="none" 
	d="
M61.399014,60.753010 
	C61.109692,59.938023 61.009335,58.825890 61.026905,57.306519 
	C61.144833,56.899284 61.616814,56.874084 61.849030,56.919575 
	C61.916821,58.128666 61.752399,59.292263 61.399014,60.753010 
z"/>
<path fill="#3C6488" opacity="1.000000" stroke="none" 
	d="
M61.084900,73.263374 
	C61.107883,72.854256 61.457546,72.990593 61.629311,73.065735 
	C61.857796,74.167313 61.914524,75.193733 61.928680,76.602257 
	C61.886105,76.984352 61.398903,76.965172 61.155056,76.946747 
	C60.961449,75.843040 61.011684,74.757767 61.084900,73.263374 
z"/>
<path fill="#83AADB" opacity="1.000000" stroke="none" 
	d="
M28.917868,63.458233 
	C28.933689,61.320564 28.993891,59.570507 29.098347,57.383949 
	C29.142599,56.947456 29.507448,57.002163 29.689365,57.029041 
	C29.871281,57.055920 30.093254,56.997246 30.170414,57.366264 
	C30.277557,59.424164 30.307541,61.113045 30.249092,63.217918 
	C30.189714,64.757919 30.218767,65.881927 30.151676,67.001541 
	C30.055534,66.997147 29.863323,66.986916 29.694094,66.980370 
	C29.524864,66.973824 29.186535,66.957726 29.186535,66.957726 
	C29.111773,65.920433 29.037012,64.883133 28.917868,63.458233 
z"/>
<path fill="#88AAD1" opacity="1.000000" stroke="none" 
	d="
M29.918861,70.958534 
	C29.938639,72.037148 29.958416,73.115768 29.971439,74.598122 
	C29.664669,73.918533 29.364655,72.835197 29.300941,71.375183 
	C29.537247,70.998505 29.918861,70.958534 29.918861,70.958534 
z"/>
<path fill="#94B8E4" opacity="1.000000" stroke="none" 
	d="
M29.960976,70.976624 
	C29.918861,70.958534 29.537247,70.998505 29.346935,71.017975 
	C29.127125,69.948059 29.097626,68.858673 29.127331,67.363503 
	C29.186535,66.957726 29.524864,66.973824 29.735001,67.384811 
	C29.990013,68.878860 30.034889,69.961922 30.079767,71.044975 
	C30.079767,71.044975 30.003092,70.994720 29.960976,70.976624 
z"/>
<path fill="#2E66A2" opacity="1.000000" stroke="none" 
	d="
M33.010529,74.516449 
	C32.608116,74.906052 32.202736,74.881584 31.499958,74.797913 
	C31.129812,73.742569 31.057068,72.746429 31.005127,70.968658 
	C31.108936,69.104240 31.191944,68.021454 31.274952,66.938675 
	C31.852491,69.326576 32.430027,71.714478 33.010529,74.516449 
z"/>
<path fill="#688CB8" opacity="1.000000" stroke="none" 
	d="
M31.210878,66.950150 
	C31.191944,68.021454 31.108936,69.104240 30.983093,70.591553 
	C30.940260,70.996086 30.509518,71.016518 30.294643,71.030746 
	C30.034889,69.961922 29.990013,68.878860 29.904228,67.391357 
	C29.863323,66.986916 30.055534,66.997147 30.343925,66.996574 
	C30.632315,66.996002 31.018711,66.984863 31.018711,66.984863 
	C31.018711,66.984863 31.146805,66.961617 31.210878,66.950150 
z"/>
<path fill="#2B69A9" opacity="1.000000" stroke="none" 
	d="
M48.257263,54.845520 
	C47.555717,55.001389 47.111069,55.000660 46.322220,54.610928 
	C45.881409,50.761749 44.133305,48.857586 40.644138,49.132381 
	C36.028370,49.495911 37.264153,53.201050 36.668766,55.921211 
	C34.598785,54.895641 32.856186,53.952370 31.113585,53.009102 
	C31.072105,51.624634 31.030626,50.240166 30.976860,48.441364 
	C30.982300,47.575310 31.000027,47.123585 31.032532,46.333260 
	C33.105793,46.307392 35.164272,46.620125 38.062214,46.965523 
	C41.600723,46.997932 44.299770,46.997669 46.998821,46.997406 
	C48.611980,48.098042 50.225140,49.198677 51.738590,50.868393 
	C51.425949,51.957424 51.213013,52.477375 51.000076,52.997322 
	C50.171436,53.561192 49.342796,54.125061 48.257263,54.845520 
z"/>
<path fill="#2B69A1" opacity="1.000000" stroke="none" 
	d="
M47.071018,46.646595 
	C44.299770,46.997669 41.600723,46.997932 38.451958,46.997459 
	C37.790489,44.887371 37.578735,42.778015 37.366982,40.668663 
	C40.023857,40.772385 42.871609,40.350033 45.252663,41.213943 
	C46.352650,41.613056 46.541348,44.523796 47.071018,46.646595 
z"/>
<path fill="#2A69A9" opacity="1.000000" stroke="none" 
	d="
M51.232445,52.926014 
	C51.213013,52.477375 51.425949,51.957424 51.819038,51.219036 
	C51.821064,51.618633 51.642937,52.236668 51.232445,52.926014 
z"/>
<path fill="#2E66A2" opacity="1.000000" stroke="none" 
	d="
M31.085567,53.345306 
	C32.856186,53.952370 34.598785,54.895641 36.669609,56.253914 
	C36.998890,57.112633 36.999947,57.556343 37.001007,58.000053 
	C35.302036,59.638725 33.603062,61.277393 31.340092,62.898209 
	C30.776093,62.880352 30.337524,62.801929 30.337524,62.801929 
	C30.307541,61.113045 30.277557,59.424164 30.271271,57.311428 
	C30.549162,55.818890 30.803356,54.750198 31.085567,53.345306 
z"/>
<path fill="#2A6BAE" opacity="1.000000" stroke="none" 
	d="
M37.306171,58.142975 
	C36.999947,57.556343 36.998890,57.112633 36.996986,56.336216 
	C37.264153,53.201050 36.028370,49.495911 40.644138,49.132381 
	C44.133305,48.857586 45.881409,50.761749 45.988731,54.610596 
	C45.656666,57.976334 45.313889,60.953392 44.929146,64.294952 
	C40.537216,64.977478 39.803150,60.652378 37.306171,58.142975 
z"/>
<path fill="#577FB0" opacity="1.000000" stroke="none" 
	d="
M30.249092,63.217918 
	C30.337524,62.801929 30.776093,62.880352 30.996214,62.924793 
	C31.159416,64.040268 31.102497,65.111298 31.032145,66.583595 
	C31.018711,66.984863 30.632315,66.996002 30.440067,67.000977 
	C30.218767,65.881927 30.189714,64.757919 30.249092,63.217918 
z"/>
</svg>